<svg xmlns="http://www.w3.org/2000/svg" viewBox="0 0 32 32" fill="none">
  <path d="M16 7C13 7 11.5 8.5 10.5 11.5C11.5 10 12.5 9.5 14 10C15 10.4 15.6 11 17 12.5C19 14.7 21.2 15.5 24 15.5C27 15.5 28.5 14 29.5 11C28.5 12.5 27.5 13 26 12.5C25 12.1 24.4 11.5 23 10C21 7.8 18.8 7 16 7Z" fill="#06B6D4"/>
  <path d="M8 15.5C5 15.5 3.5 17 2.5 20C3.5 18.5 4.5 18 6 18.5C7 18.9 7.6 19.5 9 21C11 23.2 13.2 24 16 24C19 24 20.5 22.5 21.5 19.5C20.5 21 19.5 21.5 18 21C17 20.6 16.4 20 15 18.5C13 16.3 10.8 15.5 8 15.5Z" fill="#06B6D4" opacity="0.8"/>
</svg>
